<?xml version="1.0" encoding="utf-8"?>
<!-- Generator: Adobe Illustrator 25.4.1, SVG Export Plug-In . SVG Version: 6.00 Build 0)  -->
<svg version="1.1" id="Layer_1" xmlns="http://www.w3.org/2000/svg" xmlns:xlink="http://www.w3.org/1999/xlink" x="0px" y="0px"
	 viewBox="0 0 436 70.2" style="enable-background:new 0 0 436 70.2;" xml:space="preserve">
<style type="text/css">
	.st0{fill:#FFFFFF;}
</style>
<g>
	<g>
		<path class="st0" d="M56.7,30.2c-0.3-0.3-0.3-0.5-0.2-0.8c0.5-2.4,0.2-4.6-1-6.8c-0.8-1.5-2.1-2.6-3.5-3.5
			c1.6-3.8,1.3-7.3-1.6-10.2c-2.9-2.9-6.4-3.4-10.1-1.9c-1.1-3.9-3.5-6.4-7.6-6.9c-4.1-0.5-7.1,1.4-9.1,4.9
			c-0.2-0.1-0.4-0.1-0.7-0.2C19.1,3.5,15,4.6,12.5,7.6c-0.3,0.3-0.5,0.4-0.9,0.3C7.3,7,2.9,9.1,1,13S0,21.7,3.4,24.5
			c0.3,0.3,0.4,0.5,0.3,0.9c-0.9,4.1,1,8.4,4.6,10.3c1.9,1,2.8,2.5,3.1,4.5c0.5,2.7,0.1,5.4-0.6,8C10,52,8.4,55.5,6.6,59
			c4.2,2.1,8.3,4.1,12.5,6.2c1.7-3.5,3.6-6.9,6.1-10c1.7-2.1,3.5-4,6-5.3c1.8-1,3.6-1.2,5.5-0.3c3.7,1.7,8.3,0.6,11-2.6
			c0.3-0.3,0.5-0.4,1-0.3c3.8,0.8,7.6-0.7,9.8-3.9c0.1-0.1,0.2-0.2,0.3-0.3c0.3-0.6,0.6-1.2,0.9-1.8c0-0.1,0-0.2,0-0.3
			C60.8,36.4,59.8,33,56.7,30.2z M28.9,46.8c-2.8,1.6-5,3.8-6.9,6.3c-1.4,1.9-2.7,4-4,5.9c-0.2,0.3-0.4,0.7-0.6,1
			c-1.9-0.9-3.8-1.9-5.7-2.8c0.5-1.4,1.1-2.7,1.6-4.1c1.3-3.6,2.2-7.3,2.1-11.2c0-0.9-0.1-1.7-0.3-2.6c-0.2-0.8-0.4-1.7-0.6-2.3
			c0.9-0.3,1.7-0.7,2.7-1c0.5,2.3,1.6,4.2,3.6,5.8c-0.9,1.7-1.7,3.4-2.5,5.1c1.1,0.6,2.2,1.1,3.4,1.7c0.8-1.7,1.7-3.4,2.5-5.1
			c2.4,0.6,4.7,0.3,6.8-0.7c0.2,0.9,0.5,1.8,0.7,2.8C31,45.9,29.9,46.3,28.9,46.8z M56,39.1c-0.9,2.6-3.1,4.2-5.7,4.1
			c-0.8,0-1.6-0.4-2.4-0.7c-0.5-0.2-1-0.5-1.5-0.7c-0.4,0.8-0.8,1.6-1.3,2.3c-1.6,2.4-4.7,3.2-7.2,2s-3.7-4.2-2.8-6.9
			c0.1-0.2,0.1-0.4,0.2-0.7c-1.1-0.5-2.2-1.1-3.4-1.7c-1,1.7-2.4,2.8-4.3,3.1c-1.3,0.2-2.5,0-3.6-0.6c-2.4-1.3-4-4.2-2.6-7.7
			c-1.1-0.5-2.2-1.1-3.4-1.7c-0.9,1.7-2.4,2.8-4.3,3.1c-1.3,0.2-2.5,0-3.6-0.7c-1.6-0.9-2.6-2.3-2.8-4.2c-0.3-1.8,0.5-3.4,1.4-4.9
			c-0.8-0.5-1.7-0.9-2.4-1.4C4.3,20.6,3.4,18,4,15.8c0.7-2.4,2.7-4.1,5.1-4.2c1.1-0.1,2.1,0.2,3.1,0.6c0.5,0.2,1,0.5,1.5,0.8
			c0.4-0.8,0.8-1.6,1.3-2.3c1.6-2.4,4.5-3.2,7.1-2.1c2.4,1.1,3.7,3.8,3.1,6.5c-0.1,0.4-0.2,0.8-0.4,1.2c1.1,0.5,2.2,1.1,3.4,1.7
			c0.7-1.4,1-2.9,1-4.5c-0.1-2.2-0.8-4.1-2.2-5.8c-0.3-0.3-0.3-0.5-0.1-0.9c1-1.9,2.6-3,4.8-3C33.8,3.9,35.3,5,36.1,7
			c0.6,1.4,0.5,2.7-0.1,4.1c1.1,0.6,2.2,1.1,3.4,1.7c0.6-1.1,1.5-1.9,2.7-2.4c1.9-0.8,4.4-0.2,5.8,1.4c1.4,1.6,1.6,4.2,0.5,5.9
			c-0.1,0.1-0.4,0.2-0.6,0.2c-2.7-0.1-5.1,0.8-7.1,2.6c-0.8,0.7-1.3,1.6-2,2.5c1.3,0.6,2.4,1.2,3.5,1.7c2.2-3.6,5.7-3.6,7.7-2.5
			c1.7,0.9,2.7,2.3,3,4.2c0.3,1.9-0.5,3.5-1.4,5.1c0.8,0.4,1.6,0.7,2.3,1.2C55.8,34.2,56.8,36.8,56,39.1z"/>
	</g>
</g>
<g>
	<path class="st0" d="M105.3,18c1.2,1.8,1.9,4,1.9,6.5c0,2.6-0.6,4.7-1.9,6.3c-0.7,0.9-1.8,1.7-3.1,2.4c2.1,0.8,3.7,2,4.7,3.8
		s1.6,3.8,1.6,6.2c0,2.5-0.6,4.8-1.8,6.8c-0.8,1.3-1.7,2.5-2.9,3.3c-1.3,1-2.8,1.8-4.6,2.1c-1.8,0.4-3.7,0.6-5.8,0.6H75V13.4h19.8
		C99.7,13.5,103.3,15,105.3,18z M83.1,20.8v9.4h9.9c1.8,0,3.2-0.4,4.3-1c1.1-0.7,1.7-2,1.7-3.7c0-2-0.7-3.3-2.2-3.9
		C95.6,21,94,20.8,92,20.8L83.1,20.8L83.1,20.8z M83.1,37.2v11.4h9.9c1.8,0,3.2-0.2,4.1-0.8c1.8-0.9,2.7-2.7,2.7-5.3
		c0-2.2-0.9-3.7-2.6-4.6c-1-0.5-2.3-0.7-4.1-0.7L83.1,37.2L83.1,37.2z"/>
	<path class="st0" d="M132,23.8c0.1,0,0.3,0,0.7,0v8.4c-0.5-0.1-0.9-0.1-1.3-0.1s-0.7,0-0.9,0c-3.2,0-5.3,1.1-6.4,3.2
		c-0.6,1.2-0.9,3.1-0.9,5.6v15h-8V24.5h7.6V30c1.2-2.1,2.3-3.5,3.2-4.3c1.5-1.3,3.4-1.9,5.8-1.9C131.8,23.8,131.9,23.8,132,23.8z"/>
	<path class="st0" d="M162.6,52.1c-2.6,3.3-6.4,4.9-11.6,4.9c-5.2,0-9.1-1.6-11.6-4.9c-2.6-3.3-3.8-7.2-3.8-11.8
		c0-4.5,1.3-8.5,3.8-11.8s6.4-5,11.6-5c5.2,0,9.1,1.7,11.6,5c2.6,3.3,3.8,7.3,3.8,11.8C166.4,44.9,165.1,48.8,162.6,52.1z
		 M156.2,47.6c1.2-1.7,1.9-4.1,1.9-7.3c0-3.2-0.6-5.6-1.9-7.3s-3-2.5-5.3-2.5c-2.3,0-4.1,0.9-5.3,2.5c-1.2,1.7-1.9,4.1-1.9,7.3
		c0,3.2,0.6,5.6,1.9,7.3s3,2.6,5.3,2.6C153.2,50.2,155,49.3,156.2,47.6z"/>
	<path class="st0" d="M190.1,35.8c-0.1-1.2-0.5-2.2-1.1-3.2c-0.9-1.3-2.3-1.9-4.1-1.9c-2.7,0-4.5,1.4-5.5,4.1
		c-0.5,1.5-0.8,3.4-0.8,5.8c0,2.3,0.3,4.2,0.8,5.6c0.9,2.6,2.7,3.9,5.3,3.9c1.9,0,3.2-0.5,3.9-1.6s1.2-2.4,1.4-4h8.1
		c-0.2,2.5-1.1,4.9-2.6,7.1c-2.5,3.6-6.2,5.4-11,5.4s-8.4-1.5-10.8-4.5s-3.4-6.9-3.4-11.7c0-5.4,1.3-9.6,3.8-12.6
		c2.5-3,6-4.5,10.5-4.5c3.8,0,6.9,0.9,9.3,2.7c2.4,1.8,3.9,4.9,4.3,9.4L190.1,35.8L190.1,35.8z"/>
	<path class="st0" d="M221.8,35.8c-0.1-1.2-0.5-2.2-1.1-3.2c-0.9-1.3-2.3-1.9-4.1-1.9c-2.7,0-4.5,1.4-5.5,4.1
		c-0.5,1.5-0.8,3.4-0.8,5.8c0,2.3,0.3,4.2,0.8,5.6c0.9,2.6,2.7,3.9,5.3,3.9c1.9,0,3.2-0.5,3.9-1.6s1.2-2.4,1.4-4h8.1
		c-0.2,2.5-1.1,4.9-2.6,7.1c-2.5,3.6-6.2,5.4-11,5.4s-8.4-1.5-10.8-4.5s-3.4-6.9-3.4-11.7c0-5.4,1.3-9.6,3.8-12.6
		c2.5-3,6-4.5,10.5-4.5c3.8,0,6.9,0.9,9.3,2.7c2.4,1.8,3.9,4.9,4.3,9.4L221.8,35.8L221.8,35.8z"/>
	<path class="st0" d="M260.5,52.1c-2.5,3.3-6.4,4.9-11.6,4.9c-5.2,0-9.1-1.6-11.6-4.9c-2.6-3.3-3.8-7.2-3.8-11.8
		c0-4.5,1.3-8.5,3.8-11.8s6.4-5,11.6-5c5.2,0,9.1,1.7,11.6,5s3.8,7.3,3.8,11.8C264.3,44.9,263,48.8,260.5,52.1z M254.1,47.6
		c1.2-1.7,1.9-4.1,1.9-7.3c0-3.2-0.6-5.6-1.9-7.3s-3-2.5-5.3-2.5c-2.3,0-4.1,0.9-5.3,2.5c-1.2,1.7-1.9,4.1-1.9,7.3
		c0,3.2,0.6,5.6,1.9,7.3s3,2.6,5.3,2.6C251.1,50.2,252.9,49.3,254.1,47.6z"/>
	<path class="st0" d="M278,56h-7.9V13.4h7.9V56z"/>
	<path class="st0" d="M293.9,20.8h-8v-7.6h8V20.8z M285.9,24.5h8V56h-8V24.5z"/>
	<path class="st0" d="M302.8,38.2c1.2-1.8,3.2-3.6,6-5.4l0.9-0.5c-1.2-1.4-2.1-2.8-2.8-4.2c-0.6-1.5-1-3-1-4.5c0-3.1,1-5.5,3-7.3
		s4.6-2.6,7.9-2.6c2.9,0,5.4,0.9,7.3,2.7c1.9,1.8,2.9,4.1,2.9,6.9c0,2.5-0.6,4.6-1.7,6.1c-1.1,1.6-2.8,3-5.1,4.4L326,41
		c0.7-1,1.2-2.1,1.6-3.3c0.4-1.2,0.6-2.4,0.6-3.7h7c-0.1,2.6-0.7,5.2-1.8,7.8c-0.6,1.5-1.5,3.1-2.9,4.9l7.4,9.2h-9.6l-2.8-3.6
		c-1.4,1.3-2.7,2.3-3.9,3c-2.1,1.1-4.6,1.7-7.4,1.7c-4.2,0-7.5-1.3-9.8-3.8c-2.4-2.5-3.5-5.4-3.5-8.5
		C300.9,42.2,301.5,40,302.8,38.2z M310.5,48.4c1.1,1.2,2.5,1.8,4.3,1.8c1.3,0,2.6-0.3,3.7-0.9s2.1-1.3,2.9-2.1l-7.6-9.7
		c-2,1.4-3.3,2.6-4,3.6c-0.6,1-1,2.2-1,3.4C308.8,45.9,309.4,47.2,310.5,48.4z M314,25.6c0.3,0.6,1.1,1.5,2.2,3c1.1-0.8,2-1.5,2.5-2
		c1-1,1.4-2.2,1.4-3.4c0-0.9-0.3-1.7-0.9-2.4c-0.6-0.7-1.5-1-2.6-1c-0.7,0-1.4,0.2-2,0.6c-1,0.6-1.4,1.5-1.4,2.8
		C313.2,23.9,313.4,24.7,314,25.6z"/>
	<path class="st0" d="M347.1,17.9c3.3-3.5,7.5-5.3,12.6-5.3c6.8,0,11.8,2.4,14.9,7.1c1.7,2.6,2.7,5.3,2.8,7.9h-8.5
		c-0.5-2-1.2-3.6-2.1-4.6c-1.5-1.9-3.8-2.8-6.8-2.8c-3,0-5.5,1.3-7.2,3.9c-1.8,2.6-2.6,6.3-2.6,11.1s0.9,8.3,2.8,10.7
		s4.2,3.6,7.1,3.6c2.9,0,5.2-1,6.7-3.1c0.9-1.1,1.6-2.7,2.1-4.9h8.5c-0.7,4.6-2.6,8.4-5.6,11.3c-3,2.9-6.9,4.4-11.6,4.4
		c-5.8,0-10.4-2-13.7-5.9c-3.3-4-5-9.4-5-16.2C341.4,27.6,343.3,21.9,347.1,17.9z"/>
	<path class="st0" d="M408.8,52.1c-2.5,3.3-6.4,4.9-11.6,4.9c-5.2,0-9.1-1.6-11.6-4.9s-3.8-7.2-3.8-11.8c0-4.5,1.3-8.5,3.8-11.8
		s6.4-5,11.6-5c5.2,0,9.1,1.7,11.6,5s3.8,7.3,3.8,11.8C412.6,44.9,411.4,48.8,408.8,52.1z M402.5,47.6c1.2-1.7,1.9-4.1,1.9-7.3
		c0-3.2-0.6-5.6-1.9-7.3s-3-2.5-5.3-2.5s-4.1,0.9-5.3,2.5c-1.2,1.7-1.9,4.1-1.9,7.3c0,3.2,0.6,5.6,1.9,7.3s3,2.6,5.3,2.6
		S401.3,49.3,402.5,47.6z"/>
	<circle class="st0" cx="422.2" cy="52.4" r="5"/>
</g>
</svg>
