<svg xmlns="http://www.w3.org/2000/svg" viewBox="0 0 84.58 84.98" style="enable-background:new 0 0 84.58 84.98" xml:space="preserve"><path d="M42.44 49.09 8.97 82.56c-.85.87-2.04 1.35-3.26 1.31-2.55-.02-4.6-2.11-4.58-4.66.01-1.19.48-2.33 1.31-3.18l33.47-33.47L2.44 9.09c-.88-.85-1.35-2.03-1.31-3.26-.06-2.47 1.9-4.52 4.38-4.58h.2c1.22-.04 2.41.44 3.26 1.31l33.47 33.47L75.91 2.56c1.78-1.8 4.68-1.82 6.48-.04.89.87 1.38 2.07 1.36 3.31.04 1.22-.44 2.41-1.31 3.26L48.97 42.56l33.47 33.47c1.74 1.86 1.64 4.79-.22 6.53-1.78 1.66-4.54 1.66-6.31 0L42.44 49.09z" style="fill:#010101"/></svg>