<?xml version="1.0" encoding="utf-8"?>
<!-- Generator: Adobe Illustrator 25.4.1, SVG Export Plug-In . SVG Version: 6.00 Build 0)  -->
<svg version="1.1" id="Layer_1" xmlns="http://www.w3.org/2000/svg" xmlns:xlink="http://www.w3.org/1999/xlink" x="0px" y="0px"
	 viewBox="0 0 412.65 70.16" style="enable-background:new 0 0 412.65 70.16;" xml:space="preserve">
<style type="text/css">
	.st0{fill:#16763B;}
	.st1{fill:#898989;}
</style>
<g>
	<g>
		<path class="st0" d="M56.65,30.21c-0.29-0.26-0.31-0.47-0.24-0.82c0.51-2.39,0.16-4.65-1.04-6.78c-0.85-1.51-2.06-2.65-3.53-3.54
			c1.59-3.76,1.26-7.26-1.6-10.22c-2.86-2.95-6.36-3.37-10.12-1.9c-1.13-3.87-3.55-6.37-7.59-6.87c-4.11-0.51-7.11,1.36-9.15,4.91
			c-0.22-0.07-0.44-0.13-0.66-0.2c-3.67-1.25-7.77-0.14-10.27,2.82c-0.28,0.34-0.51,0.43-0.95,0.34C7.26,7.01,2.89,9.13,0.97,13.02
			c-1.92,3.89-0.94,8.64,2.38,11.44c0.32,0.27,0.41,0.48,0.32,0.9c-0.91,4.08,1,8.42,4.65,10.31c1.88,0.97,2.78,2.49,3.12,4.47
			c0.46,2.71,0.07,5.38-0.56,8.01c-0.91,3.82-2.46,7.39-4.24,10.88c4.16,2.06,8.33,4.11,12.49,6.17c1.68-3.53,3.57-6.93,6.05-9.98
			c1.7-2.08,3.55-4,5.96-5.29c1.81-0.97,3.59-1.18,5.55-0.26c3.69,1.73,8.29,0.61,10.96-2.57c0.3-0.35,0.53-0.41,0.96-0.31
			c3.75,0.82,7.6-0.73,9.8-3.89c0.07-0.1,0.17-0.18,0.26-0.27c0.3-0.61,0.6-1.21,0.9-1.82c0.01-0.1,0.01-0.21,0.04-0.31
			C60.79,36.44,59.78,33.02,56.65,30.21z M28.92,46.83c-2.78,1.57-5.02,3.77-6.9,6.31c-1.42,1.91-2.66,3.95-3.97,5.93
			c-0.21,0.32-0.39,0.65-0.6,1.01c-1.9-0.94-3.78-1.86-5.68-2.8c0.53-1.37,1.1-2.73,1.59-4.12c1.28-3.64,2.19-7.35,2.07-11.24
			c-0.03-0.86-0.12-1.73-0.27-2.57c-0.16-0.85-0.43-1.67-0.59-2.29c0.86-0.34,1.74-0.68,2.67-1.04c0.49,2.27,1.64,4.25,3.58,5.79
			c-0.85,1.72-1.68,3.41-2.54,5.14c1.14,0.56,2.23,1.1,3.39,1.68c0.84-1.7,1.68-3.41,2.53-5.13c2.4,0.59,4.66,0.33,6.82-0.7
			c0.25,0.94,0.5,1.85,0.74,2.75C30.96,45.88,29.89,46.28,28.92,46.83z M56.05,39.1c-0.87,2.62-3.06,4.23-5.72,4.06
			c-0.82-0.05-1.63-0.38-2.42-0.65c-0.51-0.17-0.98-0.47-1.49-0.72c-0.44,0.8-0.81,1.58-1.28,2.29c-1.59,2.41-4.71,3.24-7.25,1.97
			c-2.54-1.27-3.74-4.22-2.83-6.91c0.07-0.22,0.14-0.44,0.22-0.69c-1.11-0.55-2.22-1.1-3.38-1.67c-0.95,1.69-2.36,2.78-4.29,3.12
			c-1.27,0.22-2.49,0.02-3.62-0.58c-2.38-1.26-4-4.22-2.57-7.7c-1.1-0.55-2.21-1.09-3.38-1.67c-0.94,1.68-2.35,2.77-4.29,3.06
			c-1.27,0.19-2.49-0.03-3.6-0.67C8.54,31.41,7.59,30,7.3,28.16c-0.28-1.82,0.51-3.37,1.35-4.93c-0.84-0.47-1.66-0.88-2.43-1.38
			c-1.91-1.24-2.86-3.88-2.24-6.07c0.68-2.38,2.73-4.08,5.05-4.22c1.11-0.07,2.13,0.16,3.12,0.63c0.49,0.23,0.98,0.48,1.52,0.75
			c0.44-0.8,0.8-1.57,1.26-2.27c1.58-2.39,4.49-3.22,7.12-2.06c2.38,1.05,3.74,3.83,3.14,6.47c-0.09,0.39-0.25,0.76-0.39,1.19
			c1.1,0.54,2.2,1.09,3.36,1.66c0.7-1.41,1.03-2.91,0.96-4.48c-0.09-2.18-0.82-4.12-2.25-5.78c-0.27-0.31-0.28-0.54-0.1-0.89
			c1.03-1.95,2.61-3.04,4.83-2.96C33.75,3.88,35.27,5,36.1,6.96c0.57,1.35,0.46,2.72-0.12,4.08c1.13,0.56,2.24,1.1,3.39,1.68
			c0.63-1.08,1.48-1.91,2.65-2.41c1.92-0.81,4.39-0.22,5.75,1.42c1.37,1.65,1.59,4.24,0.46,5.92c-0.09,0.14-0.38,0.22-0.57,0.21
			c-2.73-0.1-5.12,0.75-7.07,2.65c-0.76,0.74-1.34,1.65-2.05,2.53c1.26,0.62,2.36,1.17,3.47,1.71c2.17-3.57,5.68-3.56,7.73-2.48
			c1.69,0.89,2.7,2.31,3.03,4.2c0.32,1.87-0.51,3.45-1.39,5.14c0.8,0.4,1.6,0.7,2.29,1.15C55.84,34.17,56.8,36.83,56.05,39.1z"/>
	</g>
</g>
<g>
	<path class="st0" d="M105.34,17.95c1.25,1.81,1.88,3.98,1.88,6.5c0,2.6-0.63,4.69-1.89,6.27c-0.71,0.89-1.75,1.69-3.12,2.43
		c2.09,0.79,3.66,2.04,4.72,3.75c1.06,1.71,1.59,3.79,1.59,6.24c0,2.52-0.61,4.78-1.82,6.79c-0.77,1.33-1.74,2.45-2.9,3.35
		c-1.31,1.04-2.85,1.75-4.62,2.14c-1.77,0.39-3.7,0.58-5.78,0.58H74.98V13.41h19.76C99.73,13.49,103.26,15,105.34,17.95z
		 M83.14,20.81v9.39h9.94c1.78,0,3.22-0.35,4.32-1.05c1.11-0.7,1.66-1.95,1.66-3.74c0-1.98-0.73-3.29-2.2-3.93
		c-1.26-0.44-2.87-0.66-4.83-0.66H83.14z M83.14,37.24v11.35h9.93c1.77,0,3.15-0.25,4.14-0.75c1.79-0.92,2.69-2.7,2.69-5.31
		c0-2.21-0.87-3.73-2.61-4.56c-0.97-0.46-2.33-0.7-4.09-0.72H83.14z"/>
	<path class="st0" d="M132.04,23.77c0.1,0.01,0.33,0.02,0.68,0.04v8.43c-0.5-0.06-0.94-0.1-1.33-0.12c-0.39-0.02-0.7-0.03-0.94-0.03
		c-3.18,0-5.32,1.08-6.41,3.23c-0.61,1.21-0.92,3.08-0.92,5.6v15.05h-7.96V24.5h7.55v5.49c1.22-2.1,2.28-3.53,3.19-4.3
		c1.48-1.29,3.4-1.93,5.77-1.93C131.81,23.75,131.93,23.76,132.04,23.77z"/>
	<path class="st0" d="M162.57,52.13c-2.55,3.28-6.43,4.92-11.62,4.92c-5.2,0-9.07-1.64-11.62-4.92c-2.55-3.28-3.83-7.23-3.83-11.85
		c0-4.54,1.28-8.47,3.83-11.8c2.55-3.33,6.43-4.99,11.62-4.99c5.2,0,9.07,1.66,11.62,4.99c2.55,3.33,3.83,7.26,3.83,11.8
		C166.4,44.9,165.12,48.85,162.57,52.13z M156.24,47.58c1.24-1.71,1.86-4.14,1.86-7.3c0-3.15-0.62-5.58-1.86-7.28
		c-1.24-1.7-3.01-2.55-5.33-2.55c-2.31,0-4.09,0.85-5.34,2.55c-1.25,1.7-1.87,4.13-1.87,7.28c0,3.15,0.62,5.59,1.87,7.3
		c1.25,1.71,3.03,2.57,5.34,2.57C153.23,50.15,155,49.29,156.24,47.58z"/>
	<path class="st0" d="M190.15,35.8c-0.15-1.17-0.53-2.23-1.14-3.18c-0.89-1.27-2.27-1.91-4.14-1.91c-2.67,0-4.5,1.38-5.48,4.13
		c-0.52,1.46-0.78,3.4-0.78,5.82c0,2.3,0.26,4.16,0.78,5.56c0.95,2.62,2.73,3.93,5.34,3.93c1.85,0,3.17-0.52,3.95-1.56
		c0.78-1.04,1.25-2.39,1.42-4.04h8.07c-0.19,2.5-1.06,4.87-2.61,7.1c-2.48,3.6-6.16,5.4-11.03,5.4c-4.87,0-8.45-1.5-10.75-4.51
		s-3.44-6.9-3.44-11.68c0-5.4,1.27-9.6,3.8-12.61c2.54-3,6.04-4.51,10.5-4.51c3.8,0,6.9,0.89,9.32,2.66
		c2.42,1.77,3.85,4.9,4.29,9.39H190.15z"/>
	<path class="st0" d="M221.75,35.8c-0.15-1.17-0.53-2.23-1.14-3.18c-0.89-1.27-2.27-1.91-4.14-1.91c-2.67,0-4.5,1.38-5.48,4.13
		c-0.52,1.46-0.78,3.4-0.78,5.82c0,2.3,0.26,4.16,0.78,5.56c0.95,2.62,2.73,3.93,5.34,3.93c1.85,0,3.17-0.52,3.95-1.56
		c0.78-1.04,1.25-2.39,1.42-4.04h8.07c-0.19,2.5-1.06,4.87-2.61,7.1c-2.48,3.6-6.16,5.4-11.03,5.4c-4.87,0-8.45-1.5-10.75-4.51
		s-3.44-6.9-3.44-11.68c0-5.4,1.27-9.6,3.8-12.61c2.54-3,6.04-4.51,10.5-4.51c3.8,0,6.9,0.89,9.32,2.66
		c2.42,1.77,3.85,4.9,4.29,9.39H221.75z"/>
	<path class="st0" d="M260.48,52.13c-2.55,3.28-6.43,4.92-11.62,4.92c-5.2,0-9.07-1.64-11.62-4.92c-2.55-3.28-3.83-7.23-3.83-11.85
		c0-4.54,1.28-8.47,3.83-11.8c2.55-3.33,6.43-4.99,11.62-4.99c5.2,0,9.07,1.66,11.62,4.99c2.55,3.33,3.83,7.26,3.83,11.8
		C264.31,44.9,263.03,48.85,260.48,52.13z M254.15,47.58c1.24-1.71,1.86-4.14,1.86-7.3c0-3.15-0.62-5.58-1.86-7.28
		c-1.24-1.7-3.01-2.55-5.33-2.55c-2.31,0-4.09,0.85-5.34,2.55c-1.25,1.7-1.87,4.13-1.87,7.28c0,3.15,0.62,5.59,1.87,7.3
		c1.25,1.71,3.03,2.57,5.34,2.57C251.14,50.15,252.91,49.29,254.15,47.58z"/>
	<path class="st0" d="M278.04,55.98h-7.91V13.41h7.91V55.98z"/>
	<path class="st0" d="M293.88,20.75h-8.02v-7.6h8.02V20.75z M285.86,24.5h8.02v31.48h-8.02V24.5z"/>
	<path class="st1" d="M302.76,38.19c1.22-1.83,3.22-3.64,5.99-5.43l0.86-0.55c-1.18-1.39-2.1-2.81-2.75-4.25
		c-0.65-1.45-0.97-2.95-0.97-4.51c0-3.1,1.01-5.53,3.03-7.27c2.02-1.74,4.64-2.62,7.86-2.62c2.94,0,5.37,0.89,7.29,2.68
		c1.92,1.79,2.88,4.07,2.88,6.85c0,2.51-0.58,4.55-1.73,6.11c-1.15,1.56-2.84,3.01-5.07,4.35l5.88,7.42c0.67-1,1.19-2.09,1.56-3.26
		c0.36-1.17,0.56-2.42,0.58-3.72h7.02c-0.13,2.59-0.73,5.2-1.8,7.85c-0.59,1.49-1.55,3.13-2.88,4.92l7.42,9.23h-9.57l-2.84-3.61
		c-1.38,1.34-2.67,2.32-3.87,2.96c-2.13,1.14-4.59,1.71-7.38,1.71c-4.19,0-7.46-1.27-9.82-3.81c-2.36-2.54-3.53-5.36-3.53-8.46
		C300.93,42.21,301.54,40.02,302.76,38.19z M310.49,48.39c1.12,1.18,2.55,1.76,4.3,1.76c1.32,0,2.56-0.31,3.74-0.93
		c1.18-0.62,2.13-1.31,2.87-2.07l-7.65-9.7c-2,1.37-3.33,2.57-3.97,3.61c-0.65,1.04-0.97,2.19-0.97,3.44
		C308.81,45.92,309.37,47.21,310.49,48.39z M313.97,25.58c0.34,0.56,1.09,1.55,2.24,2.98c1.15-0.81,1.98-1.5,2.47-2.05
		c0.96-1.04,1.44-2.17,1.44-3.39c0-0.89-0.29-1.68-0.86-2.37c-0.58-0.69-1.45-1.04-2.62-1.04c-0.73,0-1.41,0.2-2.04,0.61
		c-0.96,0.6-1.44,1.54-1.44,2.84C313.16,23.93,313.43,24.74,313.97,25.58z"/>
	<path class="st1" d="M347.12,17.86c3.29-3.5,7.48-5.26,12.57-5.26c6.81,0,11.78,2.35,14.93,7.05c1.74,2.64,2.67,5.28,2.8,7.94
		h-8.55c-0.54-2.04-1.24-3.58-2.09-4.62c-1.52-1.85-3.78-2.77-6.77-2.77c-3.04,0-5.45,1.3-7.2,3.91c-1.76,2.61-2.64,6.3-2.64,11.08
		c0,4.78,0.93,8.35,2.78,10.73c1.85,2.38,4.21,3.57,7.07,3.57c2.93,0,5.17-1.02,6.7-3.06c0.85-1.1,1.56-2.74,2.12-4.94h8.49
		c-0.73,4.64-2.6,8.41-5.61,11.32c-3.01,2.91-6.87,4.36-11.57,4.36c-5.82,0-10.39-1.96-13.72-5.89c-3.33-3.95-5-9.36-5-16.23
		C341.43,27.61,343.33,21.89,347.12,17.86z"/>
	<path class="st1" d="M408.82,52.13c-2.55,3.28-6.43,4.92-11.62,4.92c-5.2,0-9.07-1.64-11.62-4.92c-2.55-3.28-3.83-7.23-3.83-11.85
		c0-4.54,1.28-8.47,3.83-11.8c2.55-3.33,6.43-4.99,11.62-4.99c5.2,0,9.07,1.66,11.62,4.99c2.55,3.33,3.83,7.26,3.83,11.8
		C412.65,44.9,411.38,48.85,408.82,52.13z M402.5,47.58c1.24-1.71,1.86-4.14,1.86-7.3c0-3.15-0.62-5.58-1.86-7.28
		c-1.24-1.7-3.02-2.55-5.33-2.55c-2.31,0-4.09,0.85-5.34,2.55c-1.25,1.7-1.87,4.13-1.87,7.28c0,3.15,0.62,5.59,1.87,7.3
		c1.25,1.71,3.03,2.57,5.34,2.57C399.48,50.15,401.26,49.29,402.5,47.58z"/>
</g>
</svg>
